# xmcd CD database file generated by Grip 2.96
# 
# Track frame offsets:
#       150
#       11280
#       23006
#       33870
#       46405
#       58144
#       69549
#       79980
#       90934
#       101330
#       111174
#       121717
#       131872
#       142380
#       152872
#       164031
#       174755
#       184853
#       195386
#       206739
#       217435
#       228740
#       239413
#       249534
# 
# Disc length: 3501 seconds
# 
# Revision: 0
# Processed by: cddbd v1.4PL0 Copyright (c) Steve Scherf et al.
# Submitted via: Grip 2.96
# 
DISCID=580dab18
DTITLE=Fats Domino - THE FAT MAN
DYEAR=1900
DGENRE=
TTITLE0=Detroit City Blues
TTITLE1=The Fat Man
TTITLE2=Hide Away Blues
TTITLE3=She's my Baby
TTITLE4=Brand new Baby
TTITLE5=Little Bee
TTITLE6=Boogie Woogie Baby
TTITLE7=Hey La Bas Boogie
TTITLE8=Korea Blues
TTITLE9=Every Night About This Time
TTITLE10=Careless Love
TTITLE11=Tired of Crying
TTITLE12=What's the Matter Baby
TTITLE13=Don't Lie to Me
TTITLE14=Rockin' Chair
TTITLE15=Sometimes I Wonder
TTITLE16=Right From Wrong
TTITLE17=No No Baby
TTITLE18=Story to Tell
TTITLE19=Jumpin' Tonight
TTITLE20=Lucille
TTITLE21=Love My Baby
TTITLE22=Tee Nah Nah
TTITLE23=Slide me Down
EXTD=
EXTT0=
EXTT1=
EXTT2=
EXTT3=
EXTT4=
EXTT5=
EXTT6=
EXTT7=
EXTT8=
EXTT9=
EXTT10=
EXTT11=
EXTT12=
EXTT13=
EXTT14=
EXTT15=
EXTT16=
EXTT17=
EXTT18=
EXTT19=
EXTT20=
EXTT21=
EXTT22=
EXTT23=
PLAYORDER=
